# xmcd CD database file
#
# Track frame offsets:
#	183
#	16608
#	28570
#	58683
#	87933
#	111833
#	144383
#	164908
#	190408
#	227583
#	254208
#	281433
#	308770
#	343570
#
# Disc length: 4761 seconds
#
# Revision: 0
# Processed by: cddbd v1.5.2PL0 Copyright (c) Steve Scherf et al.
# Submitted via: CDex 1.51
#
DISCID=c312970e
DTITLE=Lee Konitz , Tiziana Ghiglion and Stefano Battaglia  - So Many Stars 
DYEAR=1991
DGENRE=Jazz
TTITLE0=Lone Lee into Free Duet 
TTITLE1=Lover Man
TTITLE2=So Many Stars 
TTITLE3=While We're Young 
TTITLE4=My Foolish Heart 
TTITLE5=My Funny Valentine 
TTITLE6=My Romance 
TTITLE7=O Cantadol 
TTITLE8=My Funny Valentine 
TTITLE9=Ill Wind 
TTITLE10=Summertime 
TTITLE11=From This Moment On 
TTITLE12=It Never Entered My Mind 
TTITLE13=Blues for Red Mitchell 
EXTD=YEAR: 1991
EXTT0=
EXTT1=
EXTT2=
EXTT3=
EXTT4=
EXTT5=
EXTT6=
EXTT7=
EXTT8=
EXTT9=
EXTT10=
EXTT11=
EXTT12=
EXTT13=
PLAYORDER=
